<svg xmlns="http://www.w3.org/2000/svg" width="960" height="560" viewBox="0 0 960 560" role="img" aria-labelledby="title desc">
  <title id="title">EvidenceTrail architecture</title>
  <desc id="desc">EvidenceTrail agent over LightRAG, Neo4j, and vector storage</desc>
  <defs>
    <style>
      .bg { fill: #0f1419; }
      .card { fill: #1a2332; stroke: #3d5a80; stroke-width: 2; rx: 10; }
      .card-app { fill: #1b3a2f; stroke: #2a9d8f; }
      .card-dep { fill: #2b2d42; stroke: #8d99ae; }
      .card-data { fill: #3d2c29; stroke: #e76f51; }
      .title { fill: #edf2f4; font: 700 18px 'Segoe UI', system-ui, sans-serif; }
      .h { fill: #edf2f4; font: 600 14px 'Segoe UI', system-ui, sans-serif; }
      .t { fill: #cbd5e1; font: 12px 'Segoe UI', system-ui, sans-serif; }
      .small { fill: #94a3b8; font: 11px 'Segoe UI', system-ui, sans-serif; }
      .arrow { stroke: #90e0ef; stroke-width: 2; fill: none; marker-end: url(#m); }
      .lbl { fill: #90e0ef; font: 11px 'Segoe UI', system-ui, sans-serif; }
    </style>
    <marker id="m" markerWidth="8" markerHeight="8" refX="6" refY="3" orient="auto">
      <path d="M0,0 L6,3 L0,6 Z" fill="#90e0ef"/>
    </marker>
  </defs>
  <rect class="bg" width="960" height="560"/>
  <text class="title" x="32" y="36">EvidenceTrail · Agentic RAG on GraphRAG</text>
  <text class="small" x="32" y="56">This repo: harness / custom / benchmark · LightRAG is a Docker dependency</text>

  <!-- User -->
  <rect class="card" x="380" y="80" width="200" height="56"/>
  <text class="h" x="420" y="105">User / CLI / WebUI</text>
  <text class="t" x="430" y="124">questions · traces</text>

  <path class="arrow" d="M430 136 L280 180"/>
  <path class="arrow" d="M530 136 L680 180"/>
  <text class="lbl" x="300" y="165">ask</text>
  <text class="lbl" x="620" y="165">/query</text>

  <!-- Harness -->
  <rect class="card-app" x="40" y="190" width="320" height="200"/>
  <text class="h" x="56" y="216">EvidenceTrail Agent (this repo)</text>
  <text class="t" x="56" y="242">1. plan (decision LLM → JSON action)</text>
  <text class="t" x="56" y="262">2. execute tools (graph / vector / check)</text>
  <text class="t" x="56" y="282">3. sufficiency audit (code)</text>
  <text class="t" x="56" y="302">4. force compose if enough / spin</text>
  <text class="t" x="56" y="322">5. numeric grounding guards</text>
  <text class="small" x="56" y="350">harness/ · lightrag_custom/ · benchmark/</text>
  <text class="small" x="56" y="368">gold catalog default OFF</text>

  <!-- LightRAG -->
  <rect class="card-dep" x="560" y="190" width="360" height="120"/>
  <text class="h" x="576" y="216">LightRAG (not vendored)</text>
  <text class="t" x="576" y="242">Docker image v1.4.16 · /query · /query/data</text>
  <text class="t" x="576" y="262">Extract + index · sitecustomize schema_guard</text>
  <text class="small" x="576" y="290">https://github.com/HKUDS/LightRAG</text>

  <path class="arrow" d="M360 290 L560 250"/>
  <text class="lbl" x="420" y="255">retrieve</text>

  <path class="arrow" d="M740 310 L740 360"/>

  <!-- Storage -->
  <rect class="card-data" x="560" y="360" width="170" height="100"/>
  <text class="h" x="576" y="388">Neo4j</text>
  <text class="t" x="576" y="410">graph edges</text>
  <text class="small" x="576" y="432">local only</text>
  <text class="small" x="576" y="448">not in git</text>

  <rect class="card-data" x="750" y="360" width="170" height="100"/>
  <text class="h" x="766" y="388">v4 rag_storage</text>
  <text class="t" x="766" y="410">vectors + KV</text>
  <text class="small" x="766" y="432">in git (~31MB)</text>
  <text class="small" x="766" y="448">no LLM cache</text>

  <path class="arrow" d="M200 390 L200 430 L560 430"/>
  <text class="lbl" x="280" y="420">chunk backfill (optional FS)</text>

  <text class="small" x="32" y="530">Educational demo · MIT for this repo · verify answers against official standards</text>
</svg>
